<svg width="115" height="26" viewBox="0 0 115 26" fill="none" xmlns="http://www.w3.org/2000/svg">
<path fill-rule="evenodd" clip-rule="evenodd" d="M88.5252 5.59289C87.0997 5.87376 86.7826 6.0621 86.0432 6.42077C82.5207 8.12973 80.9238 12.5298 82.7338 16.1484C83.6396 17.9593 85.474 19.3262 87.491 19.8738C88.5191 20.1528 90.7929 20.154 91.8345 19.8738C96.2241 18.6932 98.3896 13.7194 96.3849 9.52532C95.7658 8.23013 94.544 6.82639 93.2824 6.2138C91.9777 5.58034 89.734 5.3547 88.5252 5.59289ZM0 12.8368V20.0808H1.65468H3.51619V16.3553V12.8368L4.75719 14.6996L6.20504 16.7693H7.44604H8.48022L9.72122 14.6996C10.4002 13.6492 11.1147 12.84 11.1691 12.8368C11.2235 12.8335 11.1691 14.3935 11.1691 16.3553V20.0808H13.0306H14.6853V12.8368V5.79986H13.4442H12.2032L9.92806 9.31835C8.65246 11.2621 7.5003 12.7783 7.44604 12.8368C7.39178 12.8955 6.28134 11.3206 4.96403 9.31835L2.48201 5.79986H1.24101H0V12.8368ZM22.545 12.8368C21.0383 16.7099 19.8561 19.8233 19.8561 19.8738C19.8561 19.9241 20.7096 20.0808 21.7176 20.0808H23.5791L23.9928 18.839L24.4065 17.5971H27.0953H29.5773L29.991 18.839L30.4047 19.8738L32.2662 20.0808C33.301 20.101 34.1277 19.9186 34.1277 19.8738C34.1277 19.807 29.6195 7.87771 28.9568 6.2138L28.75 5.79986H27.0953H25.2338L22.545 12.8368ZM73.0126 12.8368V20.0808H74.8741H76.5288V12.8368V5.79986H74.8741H73.0126V12.8368ZM102.59 12.8368V20.0808H104.451H106.106V16.1484L106.313 12.2159L109.415 16.1484L112.311 20.0808H113.759H115V12.8368V5.79986H113.138H111.484V9.73229V13.6647L108.174 9.73229L105.072 5.79986H103.831H102.59V12.8368ZM91.214 9.11138C92.0022 9.44918 92.7017 10.1461 93.0755 10.9741C93.3251 11.5263 93.4888 11.8096 93.4892 12.8368C93.4897 13.9458 93.4035 14.2385 93.0755 14.9065C92.4047 16.2735 91.1562 16.9762 89.5594 16.9762C87.9608 16.9762 86.6468 16.2495 86.0432 14.9065C85.5952 13.9099 85.6018 11.934 86.0432 10.9741C86.9436 9.01587 89.164 8.23233 91.214 9.11138ZM28.5432 14.2856V14.6996H26.8885H25.4406L26.268 12.4229C26.6998 11.1828 26.8839 9.98893 26.8885 9.93926C26.8984 9.83172 28.4283 13.8277 28.5432 14.2856Z" fill="#DDDDDD"/>
<path fill-rule="evenodd" clip-rule="evenodd" d="M65.6969 0.660419C61.5474 1.59011 53.4711 6.36759 47.1524 11.463L45.504 12.7094L44.4737 11.6707C42.3074 9.68987 40.6769 7.57604 40.7648 6.68493C40.8365 5.95985 41.4094 5.70208 43.0314 5.64622C44.3683 5.6001 47.1739 5.91815 48.3887 6.26944C49.163 6.49329 48.4946 6.18421 47.1524 5.64622C44.8464 4.72224 43.4106 4.40691 41.7951 4.39977C40.655 4.39483 40.3351 4.40991 39.9406 4.60751C38.8126 5.1724 38.4123 6.29765 38.9104 7.72364C40.155 11.2878 47.1798 17.2877 54.3641 20.8114C57.9074 22.5492 60.0121 23.0755 62.1941 23.0965C63.5502 23.1095 63.7274 23.1864 64.2546 22.8888C64.9632 22.4888 65.4879 21.7948 65.4909 21.0191C65.4954 19.838 64.4792 18.0482 63.0183 16.4488L62.4001 15.6178L62.8122 16.8643C63.9151 19.0348 64.1877 20.1653 63.6364 20.8114C63.365 21.1295 63.2822 21.2283 62.4001 21.2268C60.829 21.2241 58.0869 20.2041 55.6004 18.9417L54.5702 18.5262L56.4247 17.2798C61.3795 13.7144 66.0801 9.31824 68.1695 6.47719C70.1153 3.83114 70.4883 1.79928 68.9937 0.86816C68.3802 0.485811 66.9692 0.375378 65.6969 0.660419ZM67.7574 2.73784C67.7933 2.7963 67.5078 3.21646 67.3453 3.5688C66.0565 6.36295 59.8819 12.2982 53.746 16.4488C52.7744 17.106 52.2766 17.337 52.0976 17.2798C51.7614 17.1722 47.687 14.3636 47.5645 14.1636C47.4491 13.9756 47.7806 13.5934 50.0371 11.8785C55.8133 7.48892 62.1884 3.92984 65.903 2.94558C66.8773 2.68743 67.6534 2.56829 67.7574 2.73784ZM41.383 16.4488C38.3028 19.5693 36.7794 22.2435 37.0559 23.7197C37.4603 25.8772 40.1057 26.06 44.2677 24.343C46.3127 23.4993 51.0766 21.0322 51.0673 20.8114C51.0657 20.7698 50.5961 20.5205 50.0371 20.1881L49.0068 19.5649L46.1221 20.8114C43.1619 22.3087 41.4261 23.1979 40.1467 23.3043C39.4119 23.3653 39.3225 23.3271 39.3225 23.0965C39.3225 22.7963 40.0129 21.5944 40.7648 20.6036C41.0607 20.2137 41.9326 19.0428 42.8253 18.1107L44.4737 16.4488L43.6495 15.8256L42.8253 14.9946L41.383 16.4488Z" fill="#FFCB08"/>
</svg>
