<svg width="24" height="24" viewBox="0 0 24 24" fill="none" xmlns="http://www.w3.org/2000/svg">
<g id="Button &#226;&#134;&#146; SVG - verified-icon">
<path id="Vector" d="M10.7791 2.24089C11.4183 1.4866 12.5816 1.4866 13.2207 2.24089L13.9908 3.14986C14.3827 3.61241 15.0023 3.81374 15.5913 3.66989L16.7486 3.38717C17.709 3.15258 18.6502 3.8364 18.7239 4.82226L18.8126 6.01031C18.8578 6.61485 19.2407 7.14196 19.8017 7.37173L20.9042 7.82327C21.8191 8.19794 22.1786 9.30442 21.6587 10.1453L21.0322 11.1586C20.7134 11.6743 20.7134 12.3258 21.0322 12.8415L21.6587 13.8547C22.1786 14.6956 21.8191 15.8021 20.9042 16.1767L19.8017 16.6283C19.2407 16.8581 18.8578 17.3852 18.8126 17.9897L18.7239 19.1778C18.6502 20.1636 17.709 20.8475 16.7486 20.6129L15.5913 20.3302C15.0023 20.1863 14.3827 20.3876 13.9908 20.8502L13.2207 21.7591C12.5816 22.5135 11.4183 22.5135 10.7791 21.7591L10.0091 20.8502C9.61714 20.3876 8.99754 20.1863 8.40858 20.3302L7.25128 20.6129C6.29091 20.8475 5.3497 20.1636 5.27604 19.1778L5.18729 17.9897C5.14212 17.3852 4.75916 16.8581 4.19816 16.6283L3.09569 16.1767C2.18084 15.8021 1.82132 14.6956 2.34122 13.8547L2.96772 12.8415C3.28653 12.3258 3.28653 11.6743 2.96772 11.1586L2.34122 10.1453C1.82132 9.30442 2.18084 8.19794 3.09569 7.82327L4.19816 7.37173C4.75916 7.14196 5.14212 6.61485 5.18729 6.01031L5.27604 4.82226C5.3497 3.8364 6.29091 3.15258 7.25128 3.38717L8.40858 3.66989C8.99754 3.81374 9.61714 3.61241 10.0091 3.14986L10.7791 2.24089Z" fill="#2081E2"/>
<path id="Vector_2" d="M10.8 14.1L8.7 12L8 12.7L10.8 15.5L16.8 9.50005L16.1 8.80005L10.8 14.1Z" fill="white" stroke="white" stroke-width="0.8"/>
</g>
</svg>
