<svg width="15" height="14" viewBox="0 0 15 14" fill="none" xmlns="http://www.w3.org/2000/svg">
<path d="M8.17609 12.0693C7.75786 12.3101 7.24247 12.3101 6.82425 12.0693L3.44887 10.1197C3.03064 9.87888 2.77295 9.43108 2.77295 8.94949V5.05027C2.77295 4.56656 3.03064 4.12088 3.44887 3.88008L6.82425 1.93048C7.24247 1.68968 7.75786 1.68968 8.17609 1.93048L11.5515 3.88008C11.9697 4.12088 12.2274 4.56868 12.2274 5.05027V8.94949C12.2274 9.43319 11.9697 9.87888 11.5515 10.1197L8.17609 12.0693ZM7.16221 11.4842C7.37132 11.6046 7.62901 11.6046 7.83813 11.4842L11.2135 9.53458C11.4226 9.41418 11.5515 9.19028 11.5515 8.94949V5.05027C11.5515 4.80947 11.4226 4.58557 11.2135 4.46518L7.83813 2.51557C7.62901 2.39517 7.37132 2.39517 7.16221 2.51557L3.78683 4.46518C3.57772 4.58557 3.44887 4.80947 3.44887 5.05027V8.94949C3.44887 9.19028 3.57772 9.41418 3.78683 9.53458L7.16221 11.4842ZM4.77325 5.18334L5.47241 6.9344V5.31008C5.47241 5.1242 5.62449 4.97212 5.81037 4.97212C5.99624 4.97212 6.14833 5.1242 6.14833 5.31008V8.68968C6.14833 8.85232 6.03426 8.99173 5.87373 9.0213C5.7132 9.05087 5.5569 8.96638 5.49564 8.8143L4.79649 7.06536V8.68968C4.79649 8.87556 4.6444 9.02764 4.45853 9.02764C4.27265 9.02764 4.12057 8.87556 4.12057 8.68968V5.31008C4.12057 5.14743 4.23463 5.00802 4.39516 4.97845C4.55569 4.94888 4.712 5.03337 4.77325 5.18545V5.18334ZM6.82425 5.30796C6.82425 5.12209 6.97633 4.97 7.16221 4.97H8.17609C8.36196 4.97 8.51405 5.12209 8.51405 5.30796C8.51405 5.49384 8.36196 5.64592 8.17609 5.64592H7.50017V6.65981H8.17609C8.36196 6.65981 8.51405 6.81189 8.51405 6.99777C8.51405 7.18364 8.36196 7.33573 8.17609 7.33573H7.50017V8.68757C7.50017 8.87344 7.34808 9.02553 7.16221 9.02553C6.97633 9.02553 6.82425 8.87344 6.82425 8.68757V6.99777V5.30796ZM9.18997 4.97H10.5418C10.7277 4.97 10.8798 5.12209 10.8798 5.30796C10.8798 5.49384 10.7277 5.64592 10.5418 5.64592H10.2038V8.68757C10.2038 8.87344 10.0518 9.02553 9.86589 9.02553C9.68001 9.02553 9.52793 8.87344 9.52793 8.68757V5.64592H9.18997C9.00409 5.64592 8.85201 5.49384 8.85201 5.30796C8.85201 5.12209 9.00409 4.97 9.18997 4.97Z" fill="#D9D9D9"/>
</svg>
